<?xml version="1.0" standalone="no"?><!DOCTYPE svg PUBLIC "-//W3C//DTD SVG 1.1//EN" "http://www.w3.org/Graphics/SVG/1.1/DTD/svg11.dtd"><svg t="1587811339820" class="icon" viewBox="0 0 1024 1024" version="1.1" xmlns="http://www.w3.org/2000/svg" p-id="807" xmlns:xlink="http://www.w3.org/1999/xlink" width="32" height="32"><defs><style type="text/css"></style></defs><path d="M768 187.810909a67.258182 67.258182 0 0 1 49.803636 21.643636 68.421818 68.421818 0 0 1 18.385455 50.967273l-10.705455 192.465455a27.461818 27.461818 0 0 1-7.912727 17.221818L473.134545 814.545455a74.007273 74.007273 0 0 1-52.596363 23.272727 67.956364 67.956364 0 0 1-48.174546-21.410909L207.592727 651.636364A71.447273 71.447273 0 0 1 209.454545 550.865455l344.436364-344.436364a27.461818 27.461818 0 0 1 17.221818-7.912727l192.465455-10.705455H768m0-69.818182h-7.912727l-192.465455 10.472728a95.883636 95.883636 0 0 0-62.836363 28.392727L160.581818 501.527273a141.032727 141.032727 0 0 0-2.327273 199.68l164.538182 164.538182a136.843636 136.843636 0 0 0 97.745455 40.261818 143.36 143.36 0 0 0 101.934545-42.589091l344.436364-344.436364a95.883636 95.883636 0 0 0 28.392727-62.836363l10.472727-192.465455A137.309091 137.309091 0 0 0 768 117.992727z" p-id="808"></path><path d="M602.530909 374.923636a46.545455 46.545455 0 0 1 46.545455 46.545455 46.545455 46.545455 0 0 1-46.545455 46.545454 46.545455 46.545455 0 0 1-46.545454-46.545454 46.545455 46.545455 0 0 1 46.545454-46.545455m0-69.818181a116.363636 116.363636 0 1 0 82.152727 34.210909 116.363636 116.363636 0 0 0-82.152727-34.210909z" p-id="809"></path></svg>